<?xml version="1.0" standalone="no"?>
<!DOCTYPE svg PUBLIC "-//W3C//DTD SVG 20010904//EN"
 "http://www.w3.org/TR/2001/REC-SVG-20010904/DTD/svg10.dtd">
<svg version="1.0" xmlns="http://www.w3.org/2000/svg"
 width="1662.000000pt" height="1404.000000pt" viewBox="0 0 1662.000000 1404.000000"
 preserveAspectRatio="xMidYMid meet">
<g transform="translate(0.000000,1404.000000) scale(0.100000,-0.100000)"
fill="#000000" stroke="none">
<path d="M5952 11629 c-62 -4 -123 -10 -136 -13 -13 -3 -56 -10 -97 -16 -205
-28 -573 -132 -744 -209 -22 -10 -69 -31 -105 -47 -158 -70 -409 -218 -570
-337 -298 -221 -599 -546 -782 -846 -18 -29 -41 -65 -50 -80 -10 -14 -21 -33
-25 -41 -3 -8 -15 -28 -26 -44 -33 -46 -146 -281 -179 -370 -70 -189 -158
-482 -158 -525 0 -13 -7 -53 -15 -90 -39 -178 -47 -283 -47 -571 -1 -322 15
-467 78 -740 25 -105 104 -360 124 -398 4 -10 16 -39 26 -67 10 -27 44 -105
76 -173 32 -67 58 -124 58 -127 0 -15 136 -230 355 -560 233 -351 435 -659
524 -797 36 -57 58 -75 72 -61 4 4 32 51 62 103 90 159 249 434 263 456 16 24
40 -17 -221 379 -485 735 -572 898 -679 1280 -71 251 -107 615 -87 889 7 94
17 189 23 211 6 22 14 65 18 95 19 130 96 383 173 565 54 127 195 380 266 475
234 315 552 585 886 753 272 137 473 200 820 259 111 19 168 22 385 22 257 0
314 -5 555 -50 116 -21 332 -83 400 -114 11 -5 43 -19 70 -30 132 -57 360
-179 414 -221 32 -26 36 -25 68 20 61 84 230 300 290 369 35 40 63 79 63 86 0
7 -37 37 -82 67 -81 52 -378 206 -468 243 -25 10 -54 22 -65 27 -98 41 -303
111 -440 149 -28 8 -168 35 -315 60 -162 27 -523 37 -778 19z"/>
<path d="M10440 11630 c-146 -10 -413 -52 -503 -79 -17 -5 -59 -17 -92 -26
-299 -86 -507 -171 -765 -313 -104 -57 -379 -248 -420 -292 -3 -3 -34 -30 -70
-60 -221 -187 -405 -397 -571 -650 -121 -183 -218 -336 -261 -410 -40 -68
-472 -786 -539 -895 -40 -66 -78 -123 -84 -128 -5 -4 -624 -7 -1375 -6 l-1365
1 2 -27 c1 -15 8 -35 16 -44 21 -24 141 -226 444 -746 77 -132 166 -280 197
-330 31 -49 71 -117 88 -149 18 -32 38 -66 43 -75 6 -10 59 -100 119 -202 61
-101 171 -286 245 -411 75 -125 151 -253 170 -285 19 -31 34 -69 34 -83 0 -14
-35 -80 -77 -147 -42 -67 -76 -124 -76 -126 0 -4 -254 -435 -465 -787 -235
-393 -630 -1052 -647 -1078 -10 -15 -29 -47 -43 -72 -14 -25 -34 -61 -45 -80
-14 -24 -17 -37 -9 -45 7 -7 445 -10 1375 -10 l1365 0 19 -25 c11 -14 25 -36
32 -50 7 -14 26 -47 44 -75 76 -120 255 -413 345 -565 54 -91 107
-178 118 -195 17 -27 114 -186 256 -420 27 -44 63 -102 81 -130 17 -27 41 -68
53 -90 12 -22 26 -47 31 -55 46 -73 340 -574 340 -580 0 -11 29 -40 40 -40 5
0 20 24 35 53 14 28 38 72 53 97 15 25 62 106 105 180 43 74 82 142 87 150 5
8 35 58 66 110 31 52 71 118 89 145 18 28 62 100 97 160 79 134 209 348 273
447 86 134 253 402 314 503 33 55 98 161 143 235 l83 135 1370 0 c1362 0 1370
0 1373 20 2 15 -238 434 -358 625 -12 20 -74 124 -134 225 -26 44 -51 87 -56
95 -5 8 -40 67 -78 130 -38 63 -101 167 -139 230 -39 63 -80 131 -91 150 -11
19 -45 80 -77 135 -31 55 -60 105 -65 110 -4 6 -22 37 -40 70 -18 33 -47 83
-65 110 -51 78 -215 353 -215 359 0 4 -11 24 -25 46 -14 22 -25 45 -25 51 0
7 21 46 46 88 49 81 71 119 105 179 31 55 293 496 443 746 72 120 140 235 152
255 12 20 51 84 88 143 36 59 66 110 66 113 0 6 102 185 129 225 22 34 35 56
69 115 16 28 54 91 84 140 116 190 178 302 178 323 0 12 -8 25 -17 29 -10 5
-623 5 -1363 2 -1142 -6 -1348 -4 -1367 7 -13 8 -23 19 -23 24 0 6 -11 27
-24 48 -13 20 -77 127 -142 237 -65 110 -146 245 -180 300 -34 55 -141 235
-239 400 -176 297 -200 335 -216 335 -5 0 -53 -50 -108 -111 -99 -109 -231
-291 -278 -380 -23 -43 -23 -49 -10 -80 8 -19 31 -58 51 -88 20 -29 36 -55 36
-58 0 -4 73
-124 122 -201 10 -15 21 -34 25 -41 4 -8 39 -67 78 -130 104 -169 139 -236
132 -255 -6 -14 -52 -16 -484 -18 -263 0 -509 -2 -547
-2 -38 -1 -76 4 -85 11 -27 20 -11 51 307 588 327 551 466 744 688 954 301
285 659 479 1114 604 340 94 870 106 1210 28 25 -5 79 -17 120 -26 335 -73
769 -295 1045 -533 95 -82 263 -254 331 -338 147
-184 261 -376 349 -589 20 -49 40 -97 44 -105 11 -21 76 -233 94 -305 50 -196
71 -370 71 -590 -1 -493 -131 -977 -364 -1350 -121 -195 -136 -219 -166 -259
-16 -22 -61 -90 -98 -151 -37 -60 -89 -144 -117
-185 -27 -41 -52 -82 -57 -90 -4 -8 -47 -75 -95 -148 -115 -175 -114 -173 -89
-214 11 -18 39 -69 62 -113 156 -300 238 -442
21 -450 9 -4 22 2 31 14 24 32 116 169 169 251 26 41 74 115 107 165 32 49 61
94 64 100 7 13 63 99 70 105
10 9 170 251 170 256 0 3 8 16 18 29 9 12 23 31 29 41 7 11 37 56 67 101 53
80 112 175 168 271 37 63 168 331 168 343 0 6 5 20 12 32 27 48 121 328 144
427 126 541 124 1149 -7 1626 -12 43 -25 93 -29 109 -25 97 -57 186 -123 345
-57 136 -135 275 -265 475 -89 135 -193 270 -320 415
-293 332 -634 572 -1117 785 -97 43 -217 85 -360 124 -44 12 -93 26 -110 31
-36 10 -218 43 -328 60 -191 28 -509 37 -757 20z m-3712 -3514 c13 -12 -58 -140 -273 -491 -50 -82
-141 -233 -201 -334 -59 -101 -115 -186 -123 -189 -19 -7 -41 23 -120 155 -35
59 -99 167 -141 238 -252 425 -352 607 -339 620 24 24 1171 25 1197 1z m2749
2 c11 -13 55 -85 96 -160 42 -76 143 -249 225 -385
82 -137 160 -268 174 -293 45 -80 164 -282 237 -403 39 -65 71 -120 71 -122 0
-2 20 -37 44 -78 43 -72 104 -182 134 -240 13 -27 11 -33 -104 -225 -64 -108
-128 -215 -141 -237 -14 -22 -81 -137 -150 -255 -193 -332 -231 -396 -310 -525
-41 -66 -78 -127 -83 -135 -5 -8 -24 -40 -41 -70 -123 -212 -160 -268 -181 -273
-33 -7 -1922 -9 -1941 -1 -14 5 -117 153 -117 168 0 4 -104 182 -150 256 -12 20
-243 406 -380 635 -59 99 -162 275 -230 390 -67 116 -126 214 -131 219 -21 23 -6 71 55 174
35 59 79 133 97 164 43 72 328 550 383 641 81 133 175 293 195 329 11 21 33
57 48 80 37 58 51 80 59 98 15 30 143 242 155 256 10 12 155 14 988 14 l978 0
20 -22z m1953 -3 c12 -14 10 -19 -159 -309 -13 -23 -72 -122 -130 -221 -59
-99 -147 -249 -196 -332 -58 -101 -94 -153 -105 -153 -9 0 -27 19 -40 43 -13
23 -38 65 -55 92 -18 28 -95 155 -171 283 -77 127 -159 265 -183 305 -134 222
-163 278 -151 293 19 21 1172 21 1190 -1z m-5127 -2645 c88
-146 179 -296 202 -335 122 -198 226 -388 221 -401 -5 -12 -89 -14 -590 -14
-321 0 -591 3 -600 6 -9 3 -16 11 -16 17 0 9 57 112 120 217 5 8 46 80 91 160
82 143 290 494 343 578 46 74 51 69 229 -228z m4572 248 c16
-23 170 -281 206 -348 11 -19 27 -47 37 -62 18 -28 173 -294 213 -363 109 -192
112 -200 96 -214 -14 -11 -1132 -16 -1160 -5 -22 8 -21 38 2 72 10 15 62 104
115 197 53 94 123 213 156 265 57 92 112 184 135 225 25 44 138 231 147 243
16 18 35 15 53 -10z m-1839 -1645 c23
-9 16 -60 -15 -105 -16 -24 -72 -113 -123 -198 -52 -85 -117 -192 -145 -236
-28 -45 -52 -85 -54 -90 -7 -16 -177 -299 -192 -319 -19 -25 -33 -14 -87 73
-22 37 -96 155 -165 262 -294 464 -363 589 -339 613 8 8 1100 8 1120 0z"/>
<path d="M10483 3380 c-331 -4 -395 -7 -406 -20 -26 -27 -219 -243 -332 -370
-60 -68 -184 -203 -275 -300 -91 -96 -187 -199 -215 -229 -27 -30 -89 -95
-136 -145 -47 -50 -115 -122 -150 -160 -35 -38 -119 -126 -187 -195 -67 -69
-160 -170 -205 -223 -79 -95 -107 -114 -124 -84 -4 8 -33 41 -63 73 -31 32
-102 112 -159 178 -57 66 -153 172 -215 236 -99 102 -195 205
-456 484 -42 44 -93 100 -115 124 -22 25 -72 79 -111 120 -142 152 -281 305
-363 399 -71 83 -88 98 -120 102 -20 3 -206 4 -413 2 -330 -2 -378 -4 -378 -18 0 -13 327 -377
535 -594 44 -47 112 -119 151 -160 38 -41 71 -77 75 -80 3 -3 65 -70 139 -150
73 -80 167 -181 209 -225 88 -93 189 -201 246 -265 112 -124 271 -297 289
-315 12 -11 39 -41 60 -65 22 -25 80 -88 130 -140 50 -53 138 -147 195 -210
58 -63 139 -151 180 -195 42 -44 104 -111 137 -148 34 -37 68 -67 76 -67 8 0
41 28 74 62 61 64 492 529 624 673 40 44 135 145 210 225 75 80 167 179 205
220 38 41 107 116 154 166 47 50 158 169 246 264 240 261 288 312 436 470 139
149 286 309 421 459 69 77 76 87 61 99 -9 6 -22 11 -27 10 -6 -1 -187 -5 -403
-8z"/>
</g>
</svg>
